# MagicaVoxel @ Ephtracy

# group
o 

# material
mtllib 3x3x3.mtl
usemtl palette

# normals
vn -1 0 0
vn 1 0 0
vn 0 0 1
vn 0 0 -1
vn 0 -1 0
vn 0 1 0

# texcoords
vt 0.470703 0.5
vt 0.994141 0.5

# verts
v -0.1 0 0.1
v -0.1 0 -0.2
v -0.1 0.2 0.1
v -0.1 0.2 0
v -0.1 0.2 -0.1
v -0.1 0.3 0
v -0.1 0.3 -0.1
v -0.1 0.3 -0.2
v 0.1 0.1 0.1
v 0.1 0.1 0
v 0.1 0.2 0.1
v 0.1 0.2 0
v 0 0.1 0.1
v 0 0.1 0
v 0 0.2 0.1
v 0 0.2 0
v 0.2 0 0.1
v 0.2 0 -0.2
v 0.2 0.2 0.1
v 0.2 0.2 0
v 0.2 0.2 -0.1
v 0.2 0.3 0
v 0.2 0.3 -0.1
v 0.2 0.3 -0.2
v -0.1 0 0.1
v -0.1 0.2 0.1
v 0 0 0.1
v 0 0.1 0.1
v 0 0.2 0.1
v 0.1 0 0.1
v 0.1 0.1 0.1
v 0.1 0.2 0.1
v 0.2 0 0.1
v 0.2 0.2 0.1
v -0.1 0.2 0
v -0.1 0.3 0
v 0 0.1 0
v 0 0.2 0
v 0 0.3 0
v 0.1 0.1 0
v 0.1 0.2 0
v 0.1 0.3 0
v 0.2 0.2 0
v 0.2 0.3 0
v -0.1 0 -0.2
v -0.1 0.3 -0.2
v 0.2 0 -0.2
v 0.2 0.3 -0.2
v -0.1 0 0.1
v 0 0 0.1
v 0.1 0 0.1
v 0.2 0 0.1
v 0 0 0
v 0.1 0 0
v -0.1 0 -0.2
v 0.2 0 -0.2
v 0 0.1 0.1
v 0.1 0.1 0.1
v 0 0.1 0
v 0.1 0.1 0
v -0.1 0.2 0.1
v 0 0.2 0.1
v 0.1 0.2 0.1
v 0.2 0.2 0.1
v -0.1 0.2 0
v 0 0.2 0
v 0.1 0.2 0
v 0.2 0.2 0
v -0.1 0.3 0
v 0 0.3 0
v 0.1 0.3 0
v 0.2 0.3 0
v -0.1 0.3 -0.1
v 0 0.3 -0.1
v 0.1 0.3 -0.1
v 0.2 0.3 -0.1
v -0.1 0.3 -0.2
v 0.2 0.3 -0.2

# faces
f 3/1/1 2/1/1 1/1/1
f 4/1/1 2/1/1 3/1/1
f 5/1/1 2/1/1 4/1/1
f 6/2/1 5/2/1 4/2/1
f 7/1/1 2/1/1 5/1/1
f 7/2/1 5/2/1 6/2/1
f 8/1/1 2/1/1 7/1/1
f 11/1/1 10/1/1 9/1/1
f 12/1/1 10/1/1 11/1/1
f 13/1/2 14/1/2 15/1/2
f 15/1/2 14/1/2 16/1/2
f 17/1/2 18/1/2 19/1/2
f 19/1/2 18/1/2 20/1/2
f 20/1/2 18/1/2 21/1/2
f 20/2/2 21/2/2 22/2/2
f 21/1/2 18/1/2 23/1/2
f 22/2/2 21/2/2 23/2/2
f 23/1/2 18/1/2 24/1/2
f 27/1/3 26/1/3 25/1/3
f 28/1/3 26/1/3 27/1/3
f 29/1/3 26/1/3 28/1/3
f 30/2/3 28/2/3 27/2/3
f 31/2/3 28/2/3 30/2/3
f 33/1/3 31/1/3 30/1/3
f 33/1/3 32/1/3 31/1/3
f 34/1/3 32/1/3 33/1/3
f 38/2/3 36/2/3 35/2/3
f 39/2/3 36/2/3 38/2/3
f 40/1/3 38/1/3 37/1/3
f 40/1/3 39/1/3 38/1/3
f 41/1/3 39/1/3 40/1/3
f 42/1/3 39/1/3 41/1/3
f 43/2/3 42/2/3 41/2/3
f 44/2/3 42/2/3 43/2/3
f 45/1/4 46/1/4 47/1/4
f 47/1/4 46/1/4 48/1/4
f 53/1/5 50/1/5 49/1/5
f 53/2/5 51/2/5 50/2/5
f 54/1/5 52/1/5 51/1/5
f 54/2/5 51/2/5 53/2/5
f 55/1/5 53/1/5 49/1/5
f 55/1/5 54/1/5 53/1/5
f 56/1/5 52/1/5 54/1/5
f 56/1/5 54/1/5 55/1/5
f 57/2/6 58/2/6 59/2/6
f 59/2/6 58/2/6 60/2/6
f 61/1/6 62/1/6 65/1/6
f 65/1/6 62/1/6 66/1/6
f 63/1/6 64/1/6 67/1/6
f 67/1/6 64/1/6 68/1/6
f 69/2/6 70/2/6 73/2/6
f 70/1/6 71/1/6 74/1/6
f 73/2/6 70/2/6 74/2/6
f 71/2/6 72/2/6 75/2/6
f 74/1/6 71/1/6 75/1/6
f 75/2/6 72/2/6 76/2/6
f 73/1/6 74/1/6 77/1/6
f 74/1/6 75/1/6 77/1/6
f 75/1/6 76/1/6 77/1/6
f 77/1/6 76/1/6 78/1/6
